<mxfile host="Electron" agent="Mozilla/5.0 (Windows NT 10.0; Win64; x64) AppleWebKit/537.36 (KHTML, like Gecko) draw.io/26.1.1 Chrome/132.0.6834.210 Electron/34.3.3 Safari/537.36" version="26.1.1">
  <diagram name="第 1 页" id="XSm_oSP1CjQKR2EKUibn">
    <mxGraphModel dx="1285" dy="866" grid="0" gridSize="10" guides="1" tooltips="1" connect="1" arrows="1" fold="1" page="1" pageScale="1" pageWidth="3300" pageHeight="4681" math="0" shadow="0">
      <root>
        <mxCell id="0" />
        <mxCell id="1" parent="0" />
        <mxCell id="Tru2G3mQ1BGQL0BF6qfR-82" style="edgeStyle=orthogonalEdgeStyle;rounded=0;orthogonalLoop=1;jettySize=auto;html=1;" parent="1" source="Tru2G3mQ1BGQL0BF6qfR-46" target="Tru2G3mQ1BGQL0BF6qfR-49" edge="1">
          <mxGeometry relative="1" as="geometry" />
        </mxCell>
        <mxCell id="Tru2G3mQ1BGQL0BF6qfR-46" value="硬件设备就绪" style="whiteSpace=wrap;strokeWidth=2;" parent="1" vertex="1">
          <mxGeometry x="1043" y="220" width="156" height="54" as="geometry" />
        </mxCell>
        <mxCell id="Tru2G3mQ1BGQL0BF6qfR-85" value="" style="edgeStyle=orthogonalEdgeStyle;rounded=0;orthogonalLoop=1;jettySize=auto;html=1;" parent="1" source="Tru2G3mQ1BGQL0BF6qfR-49" target="Tru2G3mQ1BGQL0BF6qfR-51" edge="1">
          <mxGeometry relative="1" as="geometry">
            <Array as="points">
              <mxPoint x="1121" y="400" />
              <mxPoint x="1121" y="400" />
            </Array>
          </mxGeometry>
        </mxCell>
        <mxCell id="Tru2G3mQ1BGQL0BF6qfR-49" value="环境数据采集并显示到OLED上" style="whiteSpace=wrap;strokeWidth=2;" parent="1" vertex="1">
          <mxGeometry x="1043" y="310" width="156" height="54" as="geometry" />
        </mxCell>
        <mxCell id="Tru2G3mQ1BGQL0BF6qfR-51" value="状态判断" style="whiteSpace=wrap;strokeWidth=2;" parent="1" vertex="1">
          <mxGeometry x="1069" y="410" width="124" height="54" as="geometry" />
        </mxCell>
        <mxCell id="Tru2G3mQ1BGQL0BF6qfR-52" value="报警处理" style="whiteSpace=wrap;strokeWidth=2;" parent="1" vertex="1">
          <mxGeometry x="969" y="526" width="124" height="54" as="geometry" />
        </mxCell>
        <mxCell id="Tru2G3mQ1BGQL0BF6qfR-53" value="等待下次采集" style="whiteSpace=wrap;strokeWidth=2;" parent="1" vertex="1">
          <mxGeometry x="1143" y="526" width="156" height="54" as="geometry" />
        </mxCell>
        <mxCell id="Tru2G3mQ1BGQL0BF6qfR-54" value="数据上传" style="whiteSpace=wrap;strokeWidth=2;" parent="1" vertex="1">
          <mxGeometry x="1059" y="630" width="124" height="54" as="geometry" />
        </mxCell>
        <mxCell id="Tru2G3mQ1BGQL0BF6qfR-55" value="指令接收" style="whiteSpace=wrap;strokeWidth=2;" parent="1" vertex="1">
          <mxGeometry x="1059" y="740" width="124" height="54" as="geometry" />
        </mxCell>
        <mxCell id="Tru2G3mQ1BGQL0BF6qfR-68" value="" style="endArrow=classic;html=1;rounded=0;" parent="1" source="Tru2G3mQ1BGQL0BF6qfR-54" target="Tru2G3mQ1BGQL0BF6qfR-55" edge="1">
          <mxGeometry width="50" height="50" relative="1" as="geometry">
            <mxPoint x="1211" y="700" as="sourcePoint" />
            <mxPoint x="1261" y="650" as="targetPoint" />
          </mxGeometry>
        </mxCell>
        <mxCell id="Tru2G3mQ1BGQL0BF6qfR-69" value="" style="endArrow=classic;html=1;rounded=0;" parent="1" source="Tru2G3mQ1BGQL0BF6qfR-53" target="Tru2G3mQ1BGQL0BF6qfR-54" edge="1">
          <mxGeometry width="50" height="50" relative="1" as="geometry">
            <mxPoint x="1219" y="640" as="sourcePoint" />
            <mxPoint x="1269" y="590" as="targetPoint" />
          </mxGeometry>
        </mxCell>
        <mxCell id="Tru2G3mQ1BGQL0BF6qfR-70" value="" style="endArrow=classic;html=1;rounded=0;" parent="1" source="Tru2G3mQ1BGQL0BF6qfR-52" target="Tru2G3mQ1BGQL0BF6qfR-54" edge="1">
          <mxGeometry width="50" height="50" relative="1" as="geometry">
            <mxPoint x="1219" y="640" as="sourcePoint" />
            <mxPoint x="1269" y="590" as="targetPoint" />
          </mxGeometry>
        </mxCell>
        <mxCell id="Tru2G3mQ1BGQL0BF6qfR-71" value="" style="endArrow=classic;html=1;rounded=0;" parent="1" source="Tru2G3mQ1BGQL0BF6qfR-51" target="Tru2G3mQ1BGQL0BF6qfR-52" edge="1">
          <mxGeometry width="50" height="50" relative="1" as="geometry">
            <mxPoint x="1099" y="510" as="sourcePoint" />
            <mxPoint x="1059" y="520" as="targetPoint" />
          </mxGeometry>
        </mxCell>
        <mxCell id="Tru2G3mQ1BGQL0BF6qfR-72" value="超限" style="edgeLabel;html=1;align=center;verticalAlign=middle;resizable=0;points=[];" parent="Tru2G3mQ1BGQL0BF6qfR-71" vertex="1" connectable="0">
          <mxGeometry x="0.0783" relative="1" as="geometry">
            <mxPoint as="offset" />
          </mxGeometry>
        </mxCell>
        <mxCell id="Tru2G3mQ1BGQL0BF6qfR-73" value="" style="endArrow=classic;html=1;rounded=0;" parent="1" source="Tru2G3mQ1BGQL0BF6qfR-51" target="Tru2G3mQ1BGQL0BF6qfR-53" edge="1">
          <mxGeometry width="50" height="50" relative="1" as="geometry">
            <mxPoint x="1099" y="510" as="sourcePoint" />
            <mxPoint x="1149" y="460" as="targetPoint" />
          </mxGeometry>
        </mxCell>
        <mxCell id="Tru2G3mQ1BGQL0BF6qfR-74" value="正常" style="edgeLabel;html=1;align=center;verticalAlign=middle;resizable=0;points=[];" parent="Tru2G3mQ1BGQL0BF6qfR-73" vertex="1" connectable="0">
          <mxGeometry x="-0.0863" relative="1" as="geometry">
            <mxPoint y="3" as="offset" />
          </mxGeometry>
        </mxCell>
        <mxCell id="Tru2G3mQ1BGQL0BF6qfR-78" style="edgeStyle=orthogonalEdgeStyle;rounded=0;orthogonalLoop=1;jettySize=auto;html=1;exitX=0.5;exitY=1;exitDx=0;exitDy=0;exitPerimeter=0;" parent="1" source="Tru2G3mQ1BGQL0BF6qfR-77" target="Tru2G3mQ1BGQL0BF6qfR-46" edge="1">
          <mxGeometry relative="1" as="geometry" />
        </mxCell>
        <mxCell id="Tru2G3mQ1BGQL0BF6qfR-77" value="开始" style="strokeWidth=2;html=1;shape=mxgraph.flowchart.terminator;whiteSpace=wrap;" parent="1" vertex="1">
          <mxGeometry x="1071" y="120" width="100" height="60" as="geometry" />
        </mxCell>
        <mxCell id="Tru2G3mQ1BGQL0BF6qfR-83" style="edgeStyle=orthogonalEdgeStyle;rounded=0;orthogonalLoop=1;jettySize=auto;html=1;exitX=0.5;exitY=0;exitDx=0;exitDy=0;entryX=1;entryY=0.5;entryDx=0;entryDy=0;" parent="1" source="Tru2G3mQ1BGQL0BF6qfR-80" target="Tru2G3mQ1BGQL0BF6qfR-49" edge="1">
          <mxGeometry relative="1" as="geometry" />
        </mxCell>
        <mxCell id="Tru2G3mQ1BGQL0BF6qfR-80" value="解析指令执行相应操作" style="rounded=0;whiteSpace=wrap;html=1;strokeWidth=2;" parent="1" vertex="1">
          <mxGeometry x="1349" y="523" width="120" height="60" as="geometry" />
        </mxCell>
        <mxCell id="Tru2G3mQ1BGQL0BF6qfR-84" style="edgeStyle=orthogonalEdgeStyle;rounded=0;orthogonalLoop=1;jettySize=auto;html=1;exitX=1;exitY=0.5;exitDx=0;exitDy=0;entryX=0.571;entryY=0.959;entryDx=0;entryDy=0;entryPerimeter=0;" parent="1" source="Tru2G3mQ1BGQL0BF6qfR-55" target="Tru2G3mQ1BGQL0BF6qfR-80" edge="1">
          <mxGeometry relative="1" as="geometry" />
        </mxCell>
        <mxCell id="Tru2G3mQ1BGQL0BF6qfR-86" value="&lt;font style=&quot;font-size: 21px;&quot;&gt;MCU FlowChart&lt;/font&gt;" style="text;html=1;align=center;verticalAlign=middle;resizable=0;points=[];autosize=1;strokeColor=none;fillColor=none;strokeWidth=5;" parent="1" vertex="1">
          <mxGeometry x="1036" y="45" width="170" height="40" as="geometry" />
        </mxCell>
        <mxCell id="kN1zlFRy2AFNIoLn2qj6-1" value="&lt;font style=&quot;font-size: 21px;&quot;&gt;Architecture Diagram&lt;/font&gt;" style="text;html=1;align=center;verticalAlign=middle;resizable=0;points=[];autosize=1;strokeColor=none;fillColor=none;strokeWidth=5;" parent="1" vertex="1">
          <mxGeometry x="183.5" y="48" width="220" height="40" as="geometry" />
        </mxCell>
        <mxCell id="kN1zlFRy2AFNIoLn2qj6-15" style="edgeStyle=orthogonalEdgeStyle;rounded=0;orthogonalLoop=1;jettySize=auto;html=1;" parent="1" edge="1">
          <mxGeometry relative="1" as="geometry">
            <mxPoint x="440" y="187.00448275862072" as="sourcePoint" />
            <mxPoint x="320" y="187" as="targetPoint" />
            <Array as="points">
              <mxPoint x="410" y="187" />
              <mxPoint x="410" y="187" />
            </Array>
          </mxGeometry>
        </mxCell>
        <mxCell id="kN1zlFRy2AFNIoLn2qj6-21" value="&lt;h2 style=&quot;border: 0px; border-collapse: collapse; border-spacing: 0px; list-style: none; margin: 0px; padding: 0px; font-variant-numeric: normal; font-variant-east-asian: normal; font-variant-alternates: normal; font-size-adjust: none; font-kerning: auto; font-optical-sizing: auto; font-feature-settings: normal; font-variation-settings: normal; font-variant-position: normal; font-variant-emoji: normal; font-weight: 400; font-stretch: normal; line-height: 48px; font-family: Arial, Helvetica, sans-serif; overflow-wrap: break-word; color: rgb(17, 17, 17); text-align: left; text-wrap-mode: wrap;&quot; class=&quot;b_focusTextMedium&quot;&gt;&lt;br&gt;&lt;/h2&gt;" style="edgeLabel;html=1;align=center;verticalAlign=middle;resizable=0;points=[];" parent="kN1zlFRy2AFNIoLn2qj6-15" vertex="1" connectable="0">
          <mxGeometry x="-0.027" y="-3" relative="1" as="geometry">
            <mxPoint as="offset" />
          </mxGeometry>
        </mxCell>
        <mxCell id="kN1zlFRy2AFNIoLn2qj6-22" value="subscribe" style="edgeLabel;html=1;align=center;verticalAlign=middle;resizable=0;points=[];" parent="kN1zlFRy2AFNIoLn2qj6-15" vertex="1" connectable="0">
          <mxGeometry x="-0.0799" y="-1" relative="1" as="geometry">
            <mxPoint as="offset" />
          </mxGeometry>
        </mxCell>
        <mxCell id="kN1zlFRy2AFNIoLn2qj6-6" value="MQTT Broker&lt;div&gt;&amp;nbsp;(EMQX Server)&amp;nbsp;&lt;/div&gt;" style="shape=ext;double=1;rounded=1;whiteSpace=wrap;html=1;" parent="1" vertex="1">
          <mxGeometry x="438" y="167" width="120" height="80" as="geometry" />
        </mxCell>
        <mxCell id="kN1zlFRy2AFNIoLn2qj6-7" value="MCU" style="ellipse;shape=doubleEllipse;whiteSpace=wrap;html=1;" parent="1" vertex="1">
          <mxGeometry x="238" y="337" width="100" height="60" as="geometry" />
        </mxCell>
        <mxCell id="kN1zlFRy2AFNIoLn2qj6-9" value="APP" style="ellipse;shape=doubleEllipse;whiteSpace=wrap;html=1;" parent="1" vertex="1">
          <mxGeometry x="688" y="172" width="100" height="60" as="geometry" />
        </mxCell>
        <mxCell id="kN1zlFRy2AFNIoLn2qj6-13" style="edgeStyle=orthogonalEdgeStyle;rounded=0;orthogonalLoop=1;jettySize=auto;html=1;" parent="1" source="kN1zlFRy2AFNIoLn2qj6-10" target="kN1zlFRy2AFNIoLn2qj6-6" edge="1">
          <mxGeometry relative="1" as="geometry">
            <Array as="points">
              <mxPoint x="378" y="227" />
              <mxPoint x="378" y="227" />
            </Array>
          </mxGeometry>
        </mxCell>
        <mxCell id="kN1zlFRy2AFNIoLn2qj6-23" value="publish" style="edgeLabel;html=1;align=center;verticalAlign=middle;resizable=0;points=[];" parent="kN1zlFRy2AFNIoLn2qj6-13" vertex="1" connectable="0">
          <mxGeometry x="-0.0255" y="-1" relative="1" as="geometry">
            <mxPoint as="offset" />
          </mxGeometry>
        </mxCell>
        <mxCell id="kN1zlFRy2AFNIoLn2qj6-10" value="ESP8266" style="ellipse;whiteSpace=wrap;html=1;" parent="1" vertex="1">
          <mxGeometry x="238" y="176.75" width="90" height="60.5" as="geometry" />
        </mxCell>
        <mxCell id="kN1zlFRy2AFNIoLn2qj6-18" value="" style="endArrow=classic;html=1;rounded=0;exitX=0.4;exitY=0;exitDx=0;exitDy=0;exitPerimeter=0;entryX=0.33;entryY=1.001;entryDx=0;entryDy=0;entryPerimeter=0;" parent="1" edge="1">
          <mxGeometry width="50" height="50" relative="1" as="geometry">
            <mxPoint x="268.3" y="336.94" as="sourcePoint" />
            <mxPoint x="267.99999999999994" y="237.25050000000005" as="targetPoint" />
          </mxGeometry>
        </mxCell>
        <mxCell id="kN1zlFRy2AFNIoLn2qj6-20" value="Tx" style="edgeLabel;html=1;align=center;verticalAlign=middle;resizable=0;points=[];" parent="kN1zlFRy2AFNIoLn2qj6-18" vertex="1" connectable="0">
          <mxGeometry x="-0.0294" y="-2" relative="1" as="geometry">
            <mxPoint as="offset" />
          </mxGeometry>
        </mxCell>
        <mxCell id="kN1zlFRy2AFNIoLn2qj6-28" style="edgeStyle=orthogonalEdgeStyle;rounded=0;orthogonalLoop=1;jettySize=auto;html=1;entryX=0.035;entryY=0.592;entryDx=0;entryDy=0;entryPerimeter=0;" parent="1" edge="1">
          <mxGeometry relative="1" as="geometry">
            <mxPoint x="558" y="186.99857142857138" as="sourcePoint" />
            <mxPoint x="691.5" y="187.49000000000012" as="targetPoint" />
          </mxGeometry>
        </mxCell>
        <mxCell id="kN1zlFRy2AFNIoLn2qj6-29" value="subscribe" style="edgeLabel;html=1;align=center;verticalAlign=middle;resizable=0;points=[];" parent="kN1zlFRy2AFNIoLn2qj6-28" vertex="1" connectable="0">
          <mxGeometry x="0.104" y="2" relative="1" as="geometry">
            <mxPoint as="offset" />
          </mxGeometry>
        </mxCell>
        <mxCell id="kN1zlFRy2AFNIoLn2qj6-30" style="edgeStyle=orthogonalEdgeStyle;rounded=0;orthogonalLoop=1;jettySize=auto;html=1;entryX=1;entryY=0.438;entryDx=0;entryDy=0;entryPerimeter=0;" parent="1" edge="1">
          <mxGeometry relative="1" as="geometry">
            <mxPoint x="688" y="217" as="sourcePoint" />
            <mxPoint x="558" y="217.03999999999996" as="targetPoint" />
            <Array as="points">
              <mxPoint x="658" y="217" />
              <mxPoint x="658" y="217" />
            </Array>
          </mxGeometry>
        </mxCell>
        <mxCell id="kN1zlFRy2AFNIoLn2qj6-31" value="publish" style="edgeLabel;html=1;align=center;verticalAlign=middle;resizable=0;points=[];" parent="kN1zlFRy2AFNIoLn2qj6-30" vertex="1" connectable="0">
          <mxGeometry x="-0.2185" y="-1" relative="1" as="geometry">
            <mxPoint x="-9" y="1" as="offset" />
          </mxGeometry>
        </mxCell>
        <mxCell id="kN1zlFRy2AFNIoLn2qj6-33" style="edgeStyle=orthogonalEdgeStyle;rounded=0;orthogonalLoop=1;jettySize=auto;html=1;entryX=0.457;entryY=0.034;entryDx=0;entryDy=0;entryPerimeter=0;" parent="1" edge="1">
          <mxGeometry relative="1" as="geometry">
            <mxPoint x="298" y="238.10000000000002" as="sourcePoint" />
            <mxPoint x="298.70000000000005" y="339.8900000000001" as="targetPoint" />
          </mxGeometry>
        </mxCell>
        <mxCell id="kN1zlFRy2AFNIoLn2qj6-34" value="Rx" style="edgeLabel;html=1;align=center;verticalAlign=middle;resizable=0;points=[];" parent="kN1zlFRy2AFNIoLn2qj6-33" vertex="1" connectable="0">
          <mxGeometry x="-0.0258" y="2" relative="1" as="geometry">
            <mxPoint as="offset" />
          </mxGeometry>
        </mxCell>
        <mxCell id="kN1zlFRy2AFNIoLn2qj6-43" value="MQ2" style="rounded=1;whiteSpace=wrap;html=1;" parent="1" vertex="1">
          <mxGeometry x="78" y="447" width="80" height="40" as="geometry" />
        </mxCell>
        <mxCell id="kN1zlFRy2AFNIoLn2qj6-44" value="DHT11" style="rounded=1;whiteSpace=wrap;html=1;" parent="1" vertex="1">
          <mxGeometry x="58" y="347" width="80" height="40" as="geometry" />
        </mxCell>
        <mxCell id="kN1zlFRy2AFNIoLn2qj6-45" value="GPS" style="rounded=1;whiteSpace=wrap;html=1;" parent="1" vertex="1">
          <mxGeometry x="438" y="311" width="80" height="40" as="geometry" />
        </mxCell>
        <mxCell id="kN1zlFRy2AFNIoLn2qj6-46" value="BUZZER" style="rounded=1;whiteSpace=wrap;html=1;" parent="1" vertex="1">
          <mxGeometry x="351" y="485" width="80" height="40" as="geometry" />
        </mxCell>
        <mxCell id="kN1zlFRy2AFNIoLn2qj6-47" value="OLED" style="rounded=1;whiteSpace=wrap;html=1;" parent="1" vertex="1">
          <mxGeometry x="228" y="490" width="80" height="40" as="geometry" />
        </mxCell>
        <mxCell id="kN1zlFRy2AFNIoLn2qj6-58" value="" style="shape=flexArrow;endArrow=classic;startArrow=classic;html=1;rounded=0;endSize=5;startSize=5;" parent="1" source="kN1zlFRy2AFNIoLn2qj6-44" target="kN1zlFRy2AFNIoLn2qj6-7" edge="1">
          <mxGeometry width="100" height="100" relative="1" as="geometry">
            <mxPoint x="408" y="477" as="sourcePoint" />
            <mxPoint x="508" y="377" as="targetPoint" />
          </mxGeometry>
        </mxCell>
        <mxCell id="kN1zlFRy2AFNIoLn2qj6-60" value="" style="shape=flexArrow;endArrow=classic;startArrow=classic;html=1;rounded=0;exitX=1;exitY=0;exitDx=0;exitDy=0;startSize=5;endSize=5;" parent="1" source="kN1zlFRy2AFNIoLn2qj6-43" target="kN1zlFRy2AFNIoLn2qj6-7" edge="1">
          <mxGeometry width="100" height="100" relative="1" as="geometry">
            <mxPoint x="308" y="427" as="sourcePoint" />
            <mxPoint x="408" y="327" as="targetPoint" />
          </mxGeometry>
        </mxCell>
        <mxCell id="kN1zlFRy2AFNIoLn2qj6-61" value="" style="shape=flexArrow;endArrow=classic;startArrow=classic;html=1;rounded=0;startSize=5;endSize=5;" parent="1" source="kN1zlFRy2AFNIoLn2qj6-47" target="kN1zlFRy2AFNIoLn2qj6-7" edge="1">
          <mxGeometry width="100" height="100" relative="1" as="geometry">
            <mxPoint x="250.5" y="593" as="sourcePoint" />
            <mxPoint x="345.5" y="535" as="targetPoint" />
          </mxGeometry>
        </mxCell>
        <mxCell id="kN1zlFRy2AFNIoLn2qj6-63" value="" style="shape=flexArrow;endArrow=classic;startArrow=classic;html=1;rounded=0;startSize=5;endSize=5;entryX=0.781;entryY=0.915;entryDx=0;entryDy=0;entryPerimeter=0;" parent="1" source="kN1zlFRy2AFNIoLn2qj6-46" target="kN1zlFRy2AFNIoLn2qj6-7" edge="1">
          <mxGeometry width="100" height="100" relative="1" as="geometry">
            <mxPoint x="298" y="495" as="sourcePoint" />
            <mxPoint x="318" y="387" as="targetPoint" />
            <Array as="points" />
          </mxGeometry>
        </mxCell>
        <mxCell id="kN1zlFRy2AFNIoLn2qj6-64" value="" style="shape=flexArrow;endArrow=classic;startArrow=classic;html=1;rounded=0;startSize=5;endSize=5;" parent="1" source="kN1zlFRy2AFNIoLn2qj6-45" target="kN1zlFRy2AFNIoLn2qj6-7" edge="1">
          <mxGeometry width="100" height="100" relative="1" as="geometry">
            <mxPoint x="430" y="467" as="sourcePoint" />
            <mxPoint x="333" y="398" as="targetPoint" />
            <Array as="points" />
          </mxGeometry>
        </mxCell>
        <mxCell id="UOdza7l45TcHm6_i0nI1-1" value="" style="shape=flexArrow;endArrow=classic;startArrow=classic;html=1;rounded=0;startSize=5;endSize=5;entryX=0.956;entryY=0.616;entryDx=0;entryDy=0;entryPerimeter=0;" parent="1" edge="1">
          <mxGeometry width="100" height="100" relative="1" as="geometry">
            <mxPoint x="447" y="432" as="sourcePoint" />
            <mxPoint x="333.5999999999999" y="378.00000000000006" as="targetPoint" />
            <Array as="points" />
          </mxGeometry>
        </mxCell>
        <mxCell id="UOdza7l45TcHm6_i0nI1-2" value="Intercom1" style="rounded=1;whiteSpace=wrap;html=1;" parent="1" vertex="1">
          <mxGeometry x="448" y="416" width="80" height="40" as="geometry" />
        </mxCell>
        <mxCell id="UOdza7l45TcHm6_i0nI1-3" value="Intercom2" style="rounded=1;whiteSpace=wrap;html=1;" parent="1" vertex="1">
          <mxGeometry x="685" y="416" width="80" height="40" as="geometry" />
        </mxCell>
        <mxCell id="UOdza7l45TcHm6_i0nI1-7" value="" style="endArrow=none;dashed=1;html=1;rounded=0;" parent="1" edge="1">
          <mxGeometry width="50" height="50" relative="1" as="geometry">
            <mxPoint x="528" y="436" as="sourcePoint" />
            <mxPoint x="684" y="436" as="targetPoint" />
          </mxGeometry>
        </mxCell>
        <mxCell id="FQCjwawwEUUmc59AN0w1-1" value="登陆界面" style="rounded=1;whiteSpace=wrap;html=1;" vertex="1" parent="1">
          <mxGeometry x="286.5" y="721" width="91" height="36" as="geometry" />
        </mxCell>
        <mxCell id="FQCjwawwEUUmc59AN0w1-2" value="主应用" style="rounded=1;whiteSpace=wrap;html=1;" vertex="1" parent="1">
          <mxGeometry x="281.5" y="813" width="101" height="38" as="geometry" />
        </mxCell>
        <mxCell id="FQCjwawwEUUmc59AN0w1-3" value="" style="endArrow=classic;html=1;rounded=0;exitX=0.5;exitY=1;exitDx=0;exitDy=0;" edge="1" parent="1" source="FQCjwawwEUUmc59AN0w1-1" target="FQCjwawwEUUmc59AN0w1-2">
          <mxGeometry width="50" height="50" relative="1" as="geometry">
            <mxPoint x="189" y="800" as="sourcePoint" />
            <mxPoint x="239" y="750" as="targetPoint" />
          </mxGeometry>
        </mxCell>
        <mxCell id="FQCjwawwEUUmc59AN0w1-4" value="认证成功" style="edgeLabel;html=1;align=center;verticalAlign=middle;resizable=0;points=[];" vertex="1" connectable="0" parent="FQCjwawwEUUmc59AN0w1-3">
          <mxGeometry x="-0.1935" y="-1" relative="1" as="geometry">
            <mxPoint as="offset" />
          </mxGeometry>
        </mxCell>
        <mxCell id="FQCjwawwEUUmc59AN0w1-10" value="日志界面" style="rounded=1;whiteSpace=wrap;html=1;" vertex="1" parent="1">
          <mxGeometry x="444" y="814" width="62" height="37" as="geometry" />
        </mxCell>
        <mxCell id="FQCjwawwEUUmc59AN0w1-11" value="环境监测界面" style="rounded=1;whiteSpace=wrap;html=1;" vertex="1" parent="1">
          <mxGeometry x="138" y="814" width="76" height="37" as="geometry" />
        </mxCell>
        <mxCell id="FQCjwawwEUUmc59AN0w1-12" value="控制界面(照明、阈值)" style="rounded=1;whiteSpace=wrap;html=1;" vertex="1" parent="1">
          <mxGeometry x="296" y="888" width="72" height="48" as="geometry" />
        </mxCell>
        <mxCell id="FQCjwawwEUUmc59AN0w1-13" value="" style="endArrow=classic;html=1;rounded=0;entryX=1;entryY=0.5;entryDx=0;entryDy=0;exitX=0;exitY=0.5;exitDx=0;exitDy=0;" edge="1" parent="1" source="FQCjwawwEUUmc59AN0w1-2" target="FQCjwawwEUUmc59AN0w1-11">
          <mxGeometry width="50" height="50" relative="1" as="geometry">
            <mxPoint x="244" y="872" as="sourcePoint" />
            <mxPoint x="294" y="822" as="targetPoint" />
          </mxGeometry>
        </mxCell>
        <mxCell id="FQCjwawwEUUmc59AN0w1-15" value="" style="endArrow=classic;html=1;rounded=0;entryX=0.5;entryY=0;entryDx=0;entryDy=0;exitX=0.5;exitY=1;exitDx=0;exitDy=0;" edge="1" parent="1" source="FQCjwawwEUUmc59AN0w1-2" target="FQCjwawwEUUmc59AN0w1-12">
          <mxGeometry width="50" height="50" relative="1" as="geometry">
            <mxPoint x="244" y="872" as="sourcePoint" />
            <mxPoint x="294" y="822" as="targetPoint" />
          </mxGeometry>
        </mxCell>
        <mxCell id="FQCjwawwEUUmc59AN0w1-16" value="" style="endArrow=classic;html=1;rounded=0;entryX=0;entryY=0.5;entryDx=0;entryDy=0;exitX=1;exitY=0.5;exitDx=0;exitDy=0;" edge="1" parent="1" source="FQCjwawwEUUmc59AN0w1-2" target="FQCjwawwEUUmc59AN0w1-10">
          <mxGeometry width="50" height="50" relative="1" as="geometry">
            <mxPoint x="304" y="878" as="sourcePoint" />
            <mxPoint x="354" y="828" as="targetPoint" />
          </mxGeometry>
        </mxCell>
        <mxCell id="FQCjwawwEUUmc59AN0w1-17" value="MQTT服务器" style="ellipse;whiteSpace=wrap;html=1;" vertex="1" parent="1">
          <mxGeometry x="139" y="897" width="76" height="42" as="geometry" />
        </mxCell>
        <mxCell id="FQCjwawwEUUmc59AN0w1-19" value="" style="endArrow=classic;html=1;rounded=0;exitX=0;exitY=0.5;exitDx=0;exitDy=0;entryX=0.974;entryY=0.406;entryDx=0;entryDy=0;entryPerimeter=0;" edge="1" parent="1" source="FQCjwawwEUUmc59AN0w1-12" target="FQCjwawwEUUmc59AN0w1-17">
          <mxGeometry width="50" height="50" relative="1" as="geometry">
            <mxPoint x="304" y="878" as="sourcePoint" />
            <mxPoint x="223" y="912" as="targetPoint" />
          </mxGeometry>
        </mxCell>
        <mxCell id="FQCjwawwEUUmc59AN0w1-23" value="控制命令" style="edgeLabel;html=1;align=center;verticalAlign=middle;resizable=0;points=[];" vertex="1" connectable="0" parent="FQCjwawwEUUmc59AN0w1-19">
          <mxGeometry x="-0.1378" relative="1" as="geometry">
            <mxPoint as="offset" />
          </mxGeometry>
        </mxCell>
        <mxCell id="FQCjwawwEUUmc59AN0w1-20" value="" style="endArrow=classic;html=1;rounded=0;exitX=0.5;exitY=0;exitDx=0;exitDy=0;entryX=0.5;entryY=1;entryDx=0;entryDy=0;" edge="1" parent="1" source="FQCjwawwEUUmc59AN0w1-17" target="FQCjwawwEUUmc59AN0w1-11">
          <mxGeometry width="50" height="50" relative="1" as="geometry">
            <mxPoint x="304" y="878" as="sourcePoint" />
            <mxPoint x="354" y="828" as="targetPoint" />
          </mxGeometry>
        </mxCell>
        <mxCell id="FQCjwawwEUUmc59AN0w1-21" value="实时数据" style="edgeLabel;html=1;align=center;verticalAlign=middle;resizable=0;points=[];" vertex="1" connectable="0" parent="FQCjwawwEUUmc59AN0w1-20">
          <mxGeometry x="0.1312" y="1" relative="1" as="geometry">
            <mxPoint x="1" y="5" as="offset" />
          </mxGeometry>
        </mxCell>
        <mxCell id="FQCjwawwEUUmc59AN0w1-25" value="安全帽设备" style="ellipse;whiteSpace=wrap;html=1;" vertex="1" parent="1">
          <mxGeometry x="142.5" y="983" width="67" height="44" as="geometry" />
        </mxCell>
        <mxCell id="FQCjwawwEUUmc59AN0w1-30" value="" style="endArrow=none;dashed=1;html=1;dashPattern=1 3;strokeWidth=2;rounded=0;exitX=0.261;exitY=0.023;exitDx=0;exitDy=0;exitPerimeter=0;entryX=0.27;entryY=0.95;entryDx=0;entryDy=0;entryPerimeter=0;" edge="1" parent="1" source="FQCjwawwEUUmc59AN0w1-25" target="FQCjwawwEUUmc59AN0w1-17">
          <mxGeometry width="50" height="50" relative="1" as="geometry">
            <mxPoint x="256" y="938" as="sourcePoint" />
            <mxPoint x="306" y="888" as="targetPoint" />
          </mxGeometry>
        </mxCell>
        <mxCell id="FQCjwawwEUUmc59AN0w1-31" value="" style="endArrow=none;dashed=1;html=1;dashPattern=1 3;strokeWidth=2;rounded=0;exitX=0.261;exitY=0.023;exitDx=0;exitDy=0;exitPerimeter=0;entryX=0.27;entryY=0.95;entryDx=0;entryDy=0;entryPerimeter=0;" edge="1" parent="1">
          <mxGeometry width="50" height="50" relative="1" as="geometry">
            <mxPoint x="192" y="983" as="sourcePoint" />
            <mxPoint x="192" y="936" as="targetPoint" />
          </mxGeometry>
        </mxCell>
        <mxCell id="FQCjwawwEUUmc59AN0w1-32" value="&lt;font style=&quot;font-size: 16px;&quot;&gt;APP架构图&lt;/font&gt;" style="text;html=1;align=center;verticalAlign=middle;resizable=0;points=[];autosize=1;strokeColor=none;fillColor=none;" vertex="1" parent="1">
          <mxGeometry x="234" y="642" width="98" height="31" as="geometry" />
        </mxCell>
      </root>
    </mxGraphModel>
  </diagram>
</mxfile>
